<?xml version="1.0" encoding="UTF-8"?>
<svg version="1.1" xmlns="http://www.w3.org/2000/svg" width="500" height="500">
<path d="M0 0 C165 0 330 0 500 0 C500 165 500 330 500 500 C335 500 170 500 0 500 C0 335 0 170 0 0 Z " fill="#FEFEFE" transform="translate(0,0)"/>
<path d="M0 0 C0.70609531 -0.00282738 1.41219063 -0.00565475 2.13968277 -0.00856781 C5.89374397 -0.02349044 9.6477676 -0.03275745 13.40185547 -0.03710938 C16.44039212 -0.04144899 19.47863758 -0.05517272 22.51708984 -0.078125 C42.27635412 -0.22426648 61.51746598 0.4909454 81.1328125 3.203125 C82.28133698 3.36028992 82.28133698 3.36028992 83.45306396 3.52062988 C87.36570088 4.07084261 91.24991739 4.72366298 95.1328125 5.453125 C96.82954102 5.76455444 96.82954102 5.76455444 98.56054688 6.08227539 C125.79897184 11.24863688 157.12333279 17.69838515 182.1328125 30.203125 C181.28673816 41.83664724 178.03481375 53.14233307 174.85546875 64.32421875 C171.78299211 75.26853091 169.05503266 86.29556185 166.3203125 97.328125 C165.79116458 99.45554233 165.26178365 101.58290172 164.73217773 103.71020508 C163.68277242 107.92618838 162.6344758 112.14244499 161.58691406 116.35888672 C160.31463627 121.47662465 159.03485189 126.59243721 157.75 131.70703125 C154.91367926 143.00295679 152.0905043 154.29810953 149.4453125 165.640625 C148.04910555 171.62502517 146.49652819 177.5157379 144.6953125 183.390625 C141.81482443 192.79047306 139.72502447 202.36472556 137.55859375 211.94921875 C135.87324316 219.39935004 134.03262903 226.80501594 132.1328125 234.203125 C137.98169293 235.22206576 143.64200419 235.32110953 149.5703125 235.265625 C150.95379883 235.25885742 150.95379883 235.25885742 152.36523438 235.25195312 C154.62116298 235.24026438 156.87695217 235.22387955 159.1328125 235.203125 C158.65062256 234.34702637 158.65062256 234.34702637 158.15869141 233.47363281 C157.08511411 231.09755742 156.82962041 229.46197628 156.71875 226.875 C156.68007813 226.07578125 156.64140625 225.2765625 156.6015625 224.453125 C156.55515625 223.215625 156.55515625 223.215625 156.5078125 221.953125 C156.46914063 221.11265625 156.43046875 220.2721875 156.390625 219.40625 C156.29665414 217.33889118 156.21365686 215.27103873 156.1328125 213.203125 C157.7828125 212.873125 159.4328125 212.543125 161.1328125 212.203125 C163.83553783 215.07477066 165.08073087 216.51304341 165.3828125 220.515625 C165.3003125 221.4025 165.2178125 222.289375 165.1328125 223.203125 C167.7728125 222.873125 170.4128125 222.543125 173.1328125 222.203125 C172.8028125 216.593125 172.4728125 210.983125 172.1328125 205.203125 C173.4528125 204.873125 174.7728125 204.543125 176.1328125 204.203125 C178.66056601 207.99475527 178.35724285 211.01186531 178.2578125 215.390625 C178.24427734 216.51500977 178.24427734 216.51500977 178.23046875 217.66210938 C178.20693828 219.50925154 178.17106811 221.35622912 178.1328125 223.203125 C179.1228125 223.203125 180.1128125 223.203125 181.1328125 223.203125 C181.23722656 222.33171875 181.34164063 221.4603125 181.44921875 220.5625 C182.1672229 217.03402246 183.3056422 214.57689345 185.0703125 211.453125 C185.85728516 210.03773438 185.85728516 210.03773438 186.66015625 208.59375 C188.1328125 206.203125 188.1328125 206.203125 190.1328125 204.203125 C192.2578125 204.578125 192.2578125 204.578125 194.1328125 205.203125 C193.97326132 213.34023495 190.14448203 219.33196257 186.1328125 226.203125 C186.66390625 225.73261719 187.195 225.26210938 187.7421875 224.77734375 C188.44859375 224.15472656 189.155 223.53210938 189.8828125 222.890625 C190.57890625 222.27574219 191.275 221.66085937 191.9921875 221.02734375 C197.61144136 216.23867303 197.61144136 216.23867303 200.8828125 216.015625 C201.6253125 216.0775 202.3678125 216.139375 203.1328125 216.203125 C203.40234375 218.4296875 203.40234375 218.4296875 203.1328125 221.203125 C196.61708121 229.20291656 186.12817137 236.51894934 176.1328125 239.203125 C173.0625 239.43359375 173.0625 239.43359375 170.0078125 239.390625 C168.99460937 239.38417969 167.98140625 239.37773437 166.9375 239.37109375 C164.1328125 239.203125 164.1328125 239.203125 161.95703125 238.6328125 C159.44223945 238.04046325 157.63997741 238.96366526 155.234375 239.7109375 C146.64532988 241.72249825 138.40622344 239.56259756 130.1328125 237.203125 C130.04789551 237.75718018 129.96297852 238.31123535 129.87548828 238.88208008 C128.1814853 249.02161815 125.53037607 258.93359803 123.0078125 268.890625 C122.51183012 270.86001254 122.01622858 272.82949602 121.52099609 274.79907227 C120.52810694 278.74604642 119.53348425 282.69257622 118.53710938 286.63867188 C116.767779 293.64690238 115.00751644 300.65737708 113.25268555 307.66925049 C112.76317431 309.61926571 112.26930617 311.56818553 111.77539062 313.51708984 C110.33293566 319.23667868 108.94836417 324.95212436 107.7421875 330.7265625 C107.52997559 331.71470947 107.31776367 332.70285645 107.09912109 333.72094727 C106.72034797 335.51112727 106.36194766 337.30581315 106.02978516 339.10522461 C105.86526855 339.87616455 105.70075195 340.64710449 105.53125 341.44140625 C105.40411621 342.10180908 105.27698242 342.76221191 105.14599609 343.44262695 C102.99788567 347.17516292 98.64883593 348.05924983 94.72045898 349.15454102 C93.49399658 349.41936279 92.26753418 349.68418457 91.00390625 349.95703125 C90.33295425 350.10341537 89.66200226 350.2497995 88.97071838 350.40061951 C87.55544148 350.70767567 86.13931584 351.01084319 84.72241211 351.31030273 C82.59867455 351.75962441 80.47797763 352.22146713 78.35742188 352.68554688 C55.90701134 357.54981069 55.90701134 357.54981069 45.8203125 357.328125 C43.9434375 357.286875 42.0665625 357.245625 40.1328125 357.203125 C40.1328125 364.463125 40.1328125 371.723125 40.1328125 379.203125 C41.7828125 378.543125 43.4328125 377.883125 45.1328125 377.203125 C55.16654313 375.67555383 63.80063296 379.3395471 72.5078125 384.015625 C76.11501939 387.02163074 79.6189337 390.20918146 82.1328125 394.203125 C82.18505862 395.86897257 82.19083495 397.53746862 82.1328125 399.203125 C64.21566704 399.68193045 48.76952597 398.68695404 32.1328125 391.203125 C31.1328125 390.203125 31.1328125 390.203125 31.01928711 387.24389648 C31.02452393 385.95040283 31.02976074 384.65690918 31.03515625 383.32421875 C31.03727867 382.29422508 31.03727867 382.29422508 31.03944397 381.24342346 C31.04505771 379.04244699 31.05761243 376.84157091 31.0703125 374.640625 C31.07532574 373.15169417 31.07988895 371.66276176 31.08398438 370.17382812 C31.09418229 366.51685695 31.11375471 362.86010383 31.1328125 359.203125 C21.2328125 359.203125 11.3328125 359.203125 1.1328125 359.203125 C1.1328125 369.763125 1.1328125 380.323125 1.1328125 391.203125 C-17.14031181 397.29416644 -30.15615469 399.72540548 -48.8671875 399.203125 C-50.046875 394.5703125 -50.046875 394.5703125 -48.4296875 391.265625 C-42.41981868 384.08309886 -34.38101243 378.87374118 -24.859375 378.02392578 C-13.0264357 377.4833756 -13.0264357 377.4833756 -7.8671875 379.203125 C-7.8671875 372.603125 -7.8671875 366.003125 -7.8671875 359.203125 C-11.1671875 359.203125 -14.4671875 359.203125 -17.8671875 359.203125 C-20.94599895 359.0019301 -23.98868364 358.76757071 -27.0546875 358.453125 C-27.9012793 358.36659668 -28.74787109 358.28006836 -29.62011719 358.19091797 C-45.60118022 356.44726464 -61.36290467 353.43361146 -76.8671875 349.203125 C-77.00294189 348.54417236 -77.13869629 347.88521973 -77.27856445 347.20629883 C-77.91070929 344.14241613 -78.54519169 341.07902167 -79.1796875 338.015625 C-79.39302734 336.97986328 -79.60636719 335.94410156 -79.82617188 334.87695312 C-80.91556918 329.62508254 -82.04111571 324.38523452 -83.25292969 319.16015625 C-83.51564163 318.02641068 -83.77835358 316.8926651 -84.04902649 315.7245636 C-84.31901962 314.56248886 -84.58901276 313.40041412 -84.8671875 312.203125 C-85.25265999 310.54200935 -85.25265999 310.54200935 -85.6459198 308.84733582 C-87.2215273 302.06257949 -88.80165423 295.2788745 -90.38245296 288.49532604 C-91.1719696 285.10732617 -91.96098552 281.71921148 -92.7487793 278.33081055 C-97.27921676 258.76631829 -97.27921676 258.76631829 -102.1184082 239.27661133 C-103.25198708 234.62365259 -104.10609336 229.92992017 -104.8671875 225.203125 C-105.87136719 225.5640625 -106.87554687 225.925 -107.91015625 226.296875 C-117.45689856 229.58820795 -126.39905732 231.83848197 -136.54296875 229.6171875 C-139.01278668 228.98626069 -139.01278668 228.98626069 -141.8671875 230.203125 C-153.760657 231.45318936 -159.71251343 227.83263379 -168.7421875 220.578125 C-170.46651039 219.13873296 -172.17713919 217.68260991 -173.8671875 216.203125 C-174.47433594 215.67332031 -175.08148438 215.14351562 -175.70703125 214.59765625 C-176.08988281 214.13746094 -176.47273438 213.67726563 -176.8671875 213.203125 C-176.5546875 210.515625 -176.5546875 210.515625 -175.8671875 208.203125 C-170.88705989 209.71225458 -167.62458808 212.75974349 -163.8671875 216.203125 C-164.84171875 214.86507812 -164.84171875 214.86507812 -165.8359375 213.5 C-166.68018025 212.31806015 -167.52390322 211.13574889 -168.3671875 209.953125 C-168.79644531 209.36660156 -169.22570312 208.78007812 -169.66796875 208.17578125 C-172.05146325 204.80862235 -172.8671875 203.45012772 -172.8671875 199.203125 C-167.52436685 199.83764243 -165.6974194 202.05944847 -162.3828125 206.05859375 C-160.55308118 208.64756925 -159.56202104 211.11497594 -158.8671875 214.203125 C-158.8671875 211.09825026 -159.4665921 208.97174603 -160.3671875 206.015625 C-161.73262278 201.19493332 -162.14940822 197.18902445 -161.8671875 192.203125 C-159.9921875 192.328125 -159.9921875 192.328125 -157.8671875 193.203125 C-156.8046875 195.640625 -156.8046875 195.640625 -155.8671875 199.203125 C-155.33007775 200.99616302 -154.78818158 202.78777233 -154.2421875 204.578125 C-153.5615625 206.8675 -153.5615625 206.8675 -152.8671875 209.203125 C-152.8671875 203.923125 -152.8671875 198.643125 -152.8671875 193.203125 C-151.2171875 193.203125 -149.5671875 193.203125 -147.8671875 193.203125 C-147.8671875 199.473125 -147.8671875 205.743125 -147.8671875 212.203125 C-145.8871875 212.533125 -143.9071875 212.863125 -141.8671875 213.203125 C-141.7640625 211.965625 -141.6609375 210.728125 -141.5546875 209.453125 C-141.12917068 205.9238384 -140.38606158 203.83151534 -137.8671875 201.203125 C-136.2171875 201.533125 -134.5671875 201.863125 -132.8671875 202.203125 C-132.80899326 205.45304946 -132.77352634 208.70283935 -132.7421875 211.953125 C-132.72542969 212.87351562 -132.70867187 213.79390625 -132.69140625 214.7421875 C-132.68173828 216.07636719 -132.68173828 216.07636719 -132.671875 217.4375 C-132.65616455 218.66291504 -132.65616455 218.66291504 -132.64013672 219.91308594 C-132.88888834 222.42200018 -133.61018621 224.03708125 -134.8671875 226.203125 C-124.86805241 225.96867869 -116.10234708 225.49159003 -106.8671875 221.203125 C-107.26502241 216.34953904 -107.87378374 211.87118728 -109.23046875 207.19140625 C-110.65441998 202.09433224 -111.83573003 196.97527802 -112.95922852 191.8046875 C-116.42828928 175.84722435 -120.38047785 160.02237993 -124.4296875 144.203125 C-124.70286804 143.13545898 -124.97604858 142.06779297 -125.25750732 140.96777344 C-127.11665827 133.71010301 -128.98862052 126.45579183 -130.8671875 119.203125 C-131.12868591 118.1925705 -131.39018433 117.18201599 -131.65960693 116.14083862 C-134.63575135 104.64897975 -137.66312582 93.17460378 -140.82446289 81.7322998 C-150.28298802 47.4573789 -150.28298802 47.4573789 -152.8671875 34.203125 C-149.54354144 32.84490426 -146.20752049 31.5197526 -142.8671875 30.203125 C-141.70445312 29.74421875 -140.54171875 29.2853125 -139.34375 28.8125 C-129.56652186 25.01685845 -119.65251509 21.91572098 -109.58154297 19.00048828 C-106.80544689 18.18498821 -104.04129286 17.33617019 -101.27734375 16.48046875 C-76.28982959 8.82576121 -50.80078696 4.19889306 -24.8671875 1.203125 C-24.17586731 1.11650604 -23.48454712 1.02988708 -22.77227783 0.94064331 C-15.18885474 0.06881822 -7.62560144 0.0209707 0 0 Z " fill="#FD5570" transform="translate(236.8671875,50.796875)"/>
<path d="M0 0 C0.70609531 -0.00282738 1.41219063 -0.00565475 2.13968277 -0.00856781 C5.89374397 -0.02349044 9.6477676 -0.03275745 13.40185547 -0.03710938 C16.44039212 -0.04144899 19.47863758 -0.05517272 22.51708984 -0.078125 C42.27635412 -0.22426648 61.51746598 0.4909454 81.1328125 3.203125 C81.89849548 3.30790161 82.66417847 3.41267822 83.45306396 3.52062988 C87.36570088 4.07084261 91.24991739 4.72366298 95.1328125 5.453125 C96.26396484 5.66074463 97.39511719 5.86836426 98.56054688 6.08227539 C125.79897184 11.24863688 157.12333279 17.69838515 182.1328125 30.203125 C181.69151622 36.27094883 180.57963726 42.04190642 179.1953125 47.953125 C179.02547852 48.68587646 178.85564453 49.41862793 178.68066406 50.17358398 C177.76448902 53.995779 176.71859236 57.59067582 175.1328125 61.203125 C168.10394631 60.64366387 161.88901817 58.08202317 155.3203125 55.640625 C130.26089596 46.52829636 105.39451096 39.70943287 79.1328125 35.203125 C78.47059692 35.08712952 77.80838135 34.97113403 77.12609863 34.85162354 C9.95493985 23.15284772 -61.13019197 33.39213322 -124.3828125 57.68359375 C-125.47295654 58.1014917 -126.56310059 58.51938965 -127.6862793 58.94995117 C-129.8117974 59.77119953 -131.93326313 60.60303195 -134.05004883 61.4465332 C-135.01193115 61.8199585 -135.97381348 62.19338379 -136.96484375 62.578125 C-137.81570557 62.91585937 -138.66656738 63.25359375 -139.54321289 63.6015625 C-142.08720223 64.26007597 -143.41979102 64.07243233 -145.8671875 63.203125 C-146.84830058 59.3077792 -147.82673606 55.41176565 -148.8046875 51.515625 C-149.22137695 49.86143555 -149.22137695 49.86143555 -149.64648438 48.17382812 C-150.04770508 46.5737793 -150.04770508 46.5737793 -150.45703125 44.94140625 C-150.70316162 43.96212158 -150.94929199 42.98283691 -151.20288086 41.97387695 C-151.82170644 39.39282162 -152.36592392 36.80927961 -152.8671875 34.203125 C-149.54354144 32.84490426 -146.20752049 31.5197526 -142.8671875 30.203125 C-141.70445312 29.74421875 -140.54171875 29.2853125 -139.34375 28.8125 C-129.56652186 25.01685845 -119.65251509 21.91572098 -109.58154297 19.00048828 C-106.80544689 18.18498821 -104.04129286 17.33617019 -101.27734375 16.48046875 C-76.28982959 8.82576121 -50.80078696 4.19889306 -24.8671875 1.203125 C-24.17586731 1.11650604 -23.48454712 1.02988708 -22.77227783 0.94064331 C-15.18885474 0.06881822 -7.62560144 0.0209707 0 0 Z " fill="#5BAB4B" transform="translate(236.8671875,50.796875)"/>
<path d="M0 0 C-0.62596346 3.67477375 -1.31068109 7.33663847 -2 11 C-2.29197266 12.74216797 -2.29197266 12.74216797 -2.58984375 14.51953125 C-2.80769531 15.66808594 -3.02554688 16.81664062 -3.25 18 C-3.44078125 19.0725 -3.6315625 20.145 -3.828125 21.25 C-5.44053885 25.03379784 -7.26130933 25.40605593 -11 27 C-13.35725432 27.65723833 -15.73686914 28.23740977 -18.12890625 28.75390625 C-18.79985825 28.90029037 -19.47081024 29.0466745 -20.16209412 29.19749451 C-21.57737102 29.50455067 -22.99349666 29.80771819 -24.41040039 30.10717773 C-26.53413795 30.55649941 -28.65483487 31.01834213 -30.77539062 31.48242188 C-53.22580116 36.34668569 -53.22580116 36.34668569 -63.3125 36.125 C-65.189375 36.08375 -67.06625 36.0425 -69 36 C-69 43.26 -69 50.52 -69 58 C-67.35 57.34 -65.7 56.68 -64 56 C-53.96626937 54.47242883 -45.33217954 58.1364221 -36.625 62.8125 C-33.01779311 65.81850574 -29.5138788 69.00605646 -27 73 C-26.94775388 74.66584757 -26.94197755 76.33434362 -27 78 C-44.91714546 78.47880545 -60.36328653 77.48382904 -77 70 C-78 69 -78 69 -78.11352539 66.04077148 C-78.10567017 64.10053101 -78.10567017 64.10053101 -78.09765625 62.12109375 C-78.0962413 61.4344313 -78.09482635 60.74776886 -78.09336853 60.04029846 C-78.08775479 57.83932199 -78.07520007 55.63844591 -78.0625 53.4375 C-78.05748676 51.94856917 -78.05292355 50.45963676 -78.04882812 48.97070312 C-78.03863021 45.31373195 -78.01905779 41.65697883 -78 38 C-87.9 38 -97.8 38 -108 38 C-108 48.56 -108 59.12 -108 70 C-126.27312431 76.09104144 -139.28896719 78.52228048 -158 78 C-159.1796875 73.3671875 -159.1796875 73.3671875 -157.5625 70.0625 C-151.55263118 62.87997386 -143.51382493 57.67061618 -133.9921875 56.82080078 C-122.1592482 56.2802506 -122.1592482 56.2802506 -117 58 C-117 51.4 -117 44.8 -117 38 C-120.3 38 -123.6 38 -127 38 C-130.07881145 37.7988051 -133.12149614 37.56444571 -136.1875 37.25 C-137.0340918 37.16347168 -137.88068359 37.07694336 -138.75292969 36.98779297 C-154.75820397 35.24149801 -170.45437487 32.14550003 -186 28 C-187.65 19.75 -189.3 11.5 -191 3 C-177.98305085 5.16949153 -177.98305085 5.16949153 -172.25 6.8125 C-169.17769838 7.5921183 -166.0923596 8.30453185 -163 9 C-162.01805664 9.22155762 -161.03611328 9.44311523 -160.02441406 9.67138672 C-141.24941716 13.69299667 -122.79061872 14.4874339 -103.625 14.5 C-101.93706329 14.50646545 -101.93706329 14.50646545 -100.21502686 14.51306152 C-70.16327577 14.56233477 -40.06974654 11.02865848 -11.2734375 2.26953125 C-3.79411765 0 -3.79411765 0 0 0 Z " fill="#5CAD4E" transform="translate(346,372)"/>
<path d="M0 0 C3.65895213 0.017059 7.31724762 0.00693115 10.97617722 -0.01032257 C29.67124947 -0.08495334 47.96905473 0.85367773 66.52392578 3.39111328 C67.67462555 3.54800629 67.67462555 3.54800629 68.84857178 3.70806885 C72.75969262 4.2583187 76.64250772 4.91192875 80.52392578 5.64111328 C81.65507812 5.84873291 82.78623047 6.05635254 83.95166016 6.27026367 C111.19008513 11.43662516 142.51444607 17.88637343 167.52392578 30.39111328 C167.38224441 31.82902844 167.23541535 33.26643698 167.08642578 34.70361328 C167.00521484 35.50412109 166.92400391 36.30462891 166.84033203 37.12939453 C166.52392578 39.39111328 166.52392578 39.39111328 165.52392578 42.39111328 C160.17345009 41.37636789 155.22819368 39.98342739 150.11767578 38.09423828 C142.70104187 35.4141519 135.20925672 33.07354286 127.64892578 30.82861328 C126.99073853 30.63279663 126.33255127 30.43697998 125.65441895 30.23522949 C111.18960937 25.93122526 111.18960937 25.93122526 96.52392578 22.39111328 C95.63479492 22.20097656 94.74566406 22.01083984 93.82958984 21.81494141 C69.44649982 16.69425322 44.13622489 12.25471344 19.16064453 12.22314453 C18.20736771 12.21981613 17.25409088 12.21648773 16.27192688 12.21305847 C14.26437862 12.20803174 12.25682213 12.20564882 10.24926758 12.20581055 C7.25668629 12.20364602 4.26448795 12.18550479 1.27197266 12.16650391 C-11.25851295 12.13031212 -23.58001739 12.80024062 -36.03889465 14.1312561 C-39.26559881 14.47529404 -42.49477128 14.79266699 -45.72412109 15.11074829 C-68.33506552 17.42679989 -92.34001676 22.0463897 -113.83154297 29.52001953 C-116.63573649 30.44370514 -119.46326601 31.26556915 -122.30102539 32.0793457 C-132.99903965 35.14981629 -143.4553425 38.77444148 -153.88232422 42.66064453 C-154.86201172 43.02544922 -155.84169922 43.39025391 -156.85107422 43.76611328 C-157.68380859 44.08322266 -158.51654297 44.40033203 -159.37451172 44.72705078 C-161.47607422 45.39111328 -161.47607422 45.39111328 -164.47607422 45.39111328 C-165.01059982 44.14690681 -165.52816033 42.89540392 -166.03857422 41.64111328 C-166.32861328 40.94501953 -166.61865234 40.24892578 -166.91748047 39.53173828 C-167.61141107 36.87247974 -167.81829766 35.82700027 -166.47607422 33.39111328 C-163.96396282 32.21365739 -161.667608 31.33909506 -159.03857422 30.51611328 C-158.27722168 30.26345703 -157.51586914 30.01080078 -156.73144531 29.75048828 C-155.12235283 29.21796863 -153.51094319 28.69240709 -151.89746094 28.17333984 C-149.59493682 27.42951173 -147.30216338 26.66200477 -145.01123047 25.88330078 C-141.27349252 24.61485832 -137.52757429 23.37351014 -133.77636719 22.14550781 C-132.24050302 21.64181218 -130.70566904 21.13496458 -129.171875 20.625 C-117.49018767 16.74751685 -105.75025074 13.62144826 -93.74560547 10.90966797 C-91.84941686 10.47641661 -89.95882573 10.01876102 -88.06982422 9.55517578 C-59.0965729 2.46435375 -29.74257097 -0.13986371 0 0 Z " fill="#57AC4B" transform="translate(251.47607421875,50.60888671875)"/>
<path d="M0 0 C1.32 0 2.64 0 4 0 C4.28875 1.175625 4.5775 2.35125 4.875 3.5625 C7.58527677 10.6117061 13.93369322 13.55845555 20.46484375 16.62890625 C36.76707046 23.64003406 52.56424743 26.17837422 70.25 26.1875 C71.48363281 26.19974609 72.71726562 26.21199219 73.98828125 26.22460938 C85.99434867 26.24354639 97.08338477 24.73999665 108.4375 20.8125 C109.33130371 20.51005371 110.22510742 20.20760742 111.14599609 19.89599609 C117.85349723 17.55891708 124.12468339 14.72948586 130.3828125 11.3828125 C133 10 133 10 136 9 C136.80563638 6.89415562 136.80563638 6.89415562 137.1875 4.4375 C137.34605469 3.61121094 137.50460937 2.78492188 137.66796875 1.93359375 C137.77753906 1.29550781 137.88710938 0.65742188 138 0 C138.99 0 139.98 0 141 0 C137.6814871 19.71814058 126.8720215 38.58614793 111.125 50.875 C94.28649087 62.74582636 76.80047431 66.10717813 56.54296875 63.56640625 C39.07847101 59.80230433 23.94346452 48.64202468 14 34 C8.51984397 24.89076286 2 12.84704645 2 2 C1.34 2 0.68 2 0 2 C0 1.34 0 0.68 0 0 Z " fill="#212147" transform="translate(180,199)"/>
<path d="M0 0 C-0.23311013 3.32181928 -0.47691219 5.10664256 -2 8 C-18.77730352 22.47694198 -46.14054138 26.17660761 -67.25 26.1875 C-69.10044922 26.20586914 -69.10044922 26.20586914 -70.98828125 26.22460938 C-82.08345383 26.24210965 -92.79525389 25.01484981 -103.4375 21.8125 C-104.49964722 21.49539062 -104.49964722 21.49539062 -105.58325195 21.171875 C-115.24354896 18.14594015 -124.54616429 13.97223693 -132 7 C-132.875 3.6875 -132.875 3.6875 -133 1 C-129.41940659 1.84249257 -125.90060154 2.69207875 -122.41796875 3.8828125 C-85.02976321 16.59580341 -41.3834294 14.95097424 -4.66015625 0.953125 C-2 0 -2 0 0 0 Z " fill="#FBF9FA" transform="translate(318,200)"/>
<path d="M0 0 C1.875 0.125 1.875 0.125 4 1 C5.0625 3.4375 5.0625 3.4375 6 7 C6.53710975 8.79303802 7.07900592 10.58464733 7.625 12.375 C8.305625 14.664375 8.305625 14.664375 9 17 C9 11.72 9 6.44 9 1 C10.65 1 12.3 1 14 1 C14 7.27 14 13.54 14 20 C15.98 20.33 17.96 20.66 20 21 C20.103125 19.7625 20.20625 18.525 20.3125 17.25 C20.73801682 13.7207134 21.48112592 11.62839034 24 9 C26.475 9.495 26.475 9.495 29 10 C29.05819424 13.24992446 29.09366116 16.49971435 29.125 19.75 C29.14175781 20.67039062 29.15851563 21.59078125 29.17578125 22.5390625 C29.18544922 23.87324219 29.18544922 23.87324219 29.1953125 25.234375 C29.21102295 26.45979004 29.21102295 26.45979004 29.22705078 27.70996094 C28.97829916 30.21887518 28.25700129 31.83395625 27 34 C39.08469263 33.84080046 49.62443516 32.91704323 60 26 C60.99 26 61.98 26 63 26 C61.51200306 30.1412927 59.24741019 31.25251811 55.375 33.125 C45.64938544 37.69361609 36.07727517 39.7133614 25.29296875 37.42578125 C22.8505595 36.78086175 22.8505595 36.78086175 20 38 C8.1065305 39.25006436 2.15467407 35.62950879 -6.875 28.375 C-8.59932289 26.93560796 -10.30995169 25.47948491 -12 24 C-12.60714844 23.47019531 -13.21429688 22.94039063 -13.83984375 22.39453125 C-14.22269531 21.93433594 -14.60554688 21.47414063 -15 21 C-14.6875 18.3125 -14.6875 18.3125 -14 16 C-9.01987239 17.50912958 -5.75740058 20.55661849 -2 24 C-2.6496875 23.10796875 -3.299375 22.2159375 -3.96875 21.296875 C-4.81299275 20.11493515 -5.65671572 18.93262389 -6.5 17.75 C-6.92925781 17.16347656 -7.35851562 16.57695312 -7.80078125 15.97265625 C-10.18427575 12.60549735 -11 11.24700272 -11 7 C-5.65717935 7.63451743 -3.8302319 9.85632347 -0.515625 13.85546875 C1.31410632 16.44444425 2.30516646 18.91185094 3 22 C3 18.89512526 2.4005954 16.76862103 1.5 13.8125 C0.13456472 8.99180832 -0.28222072 4.98589945 0 0 Z " fill="#29294C" transform="translate(75,243)"/>
<path d="M0 0 C2 0.3125 2 0.3125 4 1 C5.59412284 4.18824568 5.10174735 7.62896662 5.0625 11.125 C5.05798828 11.87910156 5.05347656 12.63320313 5.04882812 13.41015625 C5.03703499 15.27347127 5.01909942 17.13674555 5 19 C5.99 19 6.98 19 8 19 C8.10441406 18.12859375 8.20882812 17.2571875 8.31640625 16.359375 C9.0344104 12.83089746 10.1728297 10.37376845 11.9375 7.25 C12.46214844 6.30640625 12.98679687 5.3628125 13.52734375 4.390625 C15 2 15 2 17 0 C19.125 0.375 19.125 0.375 21 1 C20.84044882 9.13710995 17.01166953 15.12883757 13 22 C13.53109375 21.52949219 14.0621875 21.05898438 14.609375 20.57421875 C15.31578125 19.95160156 16.0221875 19.32898438 16.75 18.6875 C17.79414063 17.76517578 17.79414063 17.76517578 18.859375 16.82421875 C24.47862886 12.03554803 24.47862886 12.03554803 27.75 11.8125 C28.86375 11.9053125 28.86375 11.9053125 30 12 C30.26953125 14.2265625 30.26953125 14.2265625 30 17 C23.48426871 24.99979156 12.99535887 32.31582434 3 35 C-0.0703125 35.23046875 -0.0703125 35.23046875 -3.125 35.1875 C-4.13820313 35.18105469 -5.15140625 35.17460937 -6.1953125 35.16796875 C-9 35 -9 35 -11.17578125 34.4296875 C-13.69067206 33.83731493 -15.49468874 34.76269611 -17.90234375 35.50390625 C-29.64792957 38.28172636 -41.46101241 33.92988129 -51.48828125 27.953125 C-51.98714844 27.63859375 -52.48601562 27.3240625 -53 27 C-53 26.01 -53 25.02 -53 24 C-48.57297101 24.91881734 -44.72197676 26.92258241 -40.65625 28.84375 C-36.73981234 30.54855228 -33.5003613 31.12500232 -29.234375 31.09765625 C-27.90019531 31.09282227 -27.90019531 31.09282227 -26.5390625 31.08789062 C-25.61867188 31.07951172 -24.69828125 31.07113281 -23.75 31.0625 C-22.81414062 31.05798828 -21.87828125 31.05347656 -20.9140625 31.04882812 C-18.60930959 31.03706918 -16.30468773 31.02063426 -14 31 C-14.32145996 30.42926758 -14.64291992 29.85853516 -14.97412109 29.27050781 C-16.04769839 26.89443242 -16.30319209 25.25885128 -16.4140625 22.671875 C-16.47207031 21.47304688 -16.47207031 21.47304688 -16.53125 20.25 C-16.5621875 19.425 -16.593125 18.6 -16.625 17.75 C-16.68300781 16.48929687 -16.68300781 16.48929687 -16.7421875 15.203125 C-16.83615836 13.13576618 -16.91915564 11.06791373 -17 9 C-15.35 8.67 -13.7 8.34 -12 8 C-9.29727467 10.87164566 -8.05208163 12.30991841 -7.75 16.3125 C-7.8325 17.199375 -7.915 18.08625 -8 19 C-4.04 18.505 -4.04 18.505 0 18 C-0.08378906 16.78441406 -0.16757812 15.56882812 -0.25390625 14.31640625 C-0.35704703 12.73178879 -0.45989661 11.14715235 -0.5625 9.5625 C-0.64661133 8.35883789 -0.64661133 8.35883789 -0.73242188 7.13085938 C-0.8616295 5.08937889 -0.9351273 3.04453631 -1 1 C-0.67 0.67 -0.34 0.34 0 0 Z " fill="#262549" transform="translate(410,255)"/>
<path d="M0 0 C2.31 0 4.62 0 7 0 C7 7.26 7 14.52 7 22 C8.98 21.01 10.96 20.02 13 19 C22.87348421 17.17439429 31.8322269 21.22471445 40.375 25.8125 C43.98220689 28.81850574 47.4861212 32.00605646 50 36 C50.05224612 37.66584757 50.05802245 39.33434362 50 41 C31.3384701 41.49869787 17.73865115 39.82255813 0 33 C0 22.11 0 11.22 0 0 Z " fill="#232349" transform="translate(269,409)"/>
<path d="M0 0 C2.31 0 4.62 0 7 0 C7.09890664 4.35988072 7.17148376 8.71916673 7.21972656 13.07983398 C7.23983759 14.56302261 7.26713074 16.04613199 7.30175781 17.52905273 C7.35030352 19.66149435 7.37297195 21.79288777 7.390625 23.92578125 C7.41157227 25.20880127 7.43251953 26.49182129 7.45410156 27.8137207 C7 31 7 31 5.21704102 32.85766602 C3.18374434 33.90532543 1.33005565 34.71599484 -0.86328125 35.3515625 C-1.58580078 35.56296875 -2.30832031 35.774375 -3.05273438 35.9921875 C-3.79845703 36.20101562 -4.54417969 36.40984375 -5.3125 36.625 C-6.04662109 36.8415625 -6.78074219 37.058125 -7.53710938 37.28125 C-15.71948015 39.63359084 -23.46096924 40.13782119 -31.9375 40.0625 C-32.90751953 40.05798828 -33.87753906 40.05347656 -34.87695312 40.04882812 C-37.2513676 40.0371315 -39.62565021 40.02074086 -42 40 C-43.1796875 35.3671875 -43.1796875 35.3671875 -41.5625 32.0625 C-35.53186424 24.85515483 -27.53669731 19.73907304 -18.00830078 18.8046875 C-5.74085933 18.12957034 -5.74085933 18.12957034 0 21 C0 14.07 0 7.14 0 0 Z " fill="#212148" transform="translate(230,410)"/>
<path d="M0 0 C1.19393372 0.00129913 1.19393372 0.00129913 2.4119873 0.00262451 C19.12419081 0.0497267 35.74481159 0.69848996 52.3125 3 C54.21829834 3.26006836 54.21829834 3.26006836 56.16259766 3.52539062 C73.87617017 6.02592237 91.42172567 9.56071363 108.6875 14.25 C109.61530273 14.50007813 110.54310547 14.75015625 111.49902344 15.0078125 C128.47907746 19.60601758 145.47999792 24.3271976 161.6875 31.25 C161.6875 31.91 161.6875 32.57 161.6875 33.25 C160.08161957 32.83998798 158.47791264 32.42146514 156.875 32 C155.98167969 31.76796875 155.08835937 31.5359375 154.16796875 31.296875 C151.29313231 30.4321655 148.5293055 29.4683391 145.71875 28.421875 C138.89897438 25.91172649 131.96371529 23.8193998 125 21.75 C124.33432007 21.55168579 123.66864014 21.35337158 122.98278809 21.14904785 C108.43699832 16.81406278 108.43699832 16.81406278 93.6875 13.25 C92.79836914 13.05986328 91.90923828 12.86972656 90.99316406 12.67382812 C66.61007404 7.55313994 41.2997991 3.11360016 16.32421875 3.08203125 C15.37094193 3.07870285 14.4176651 3.07537445 13.4355011 3.07194519 C11.42795284 3.06691846 9.42039634 3.06453554 7.4128418 3.06469727 C4.42026051 3.06253274 1.42806217 3.04439151 -1.56445312 3.02539062 C-14.09493873 2.98919884 -26.41644317 3.65912734 -38.87532043 4.99014282 C-42.10202459 5.33418076 -45.33119706 5.65155371 -48.56054688 5.96963501 C-71.1714913 8.28568661 -95.17644254 12.90527641 -116.66796875 20.37890625 C-119.47216227 21.30259186 -122.29969179 22.12445586 -125.13745117 22.93823242 C-135.83546543 26.00870301 -146.29176828 29.6333282 -156.71875 33.51953125 C-157.6984375 33.88433594 -158.678125 34.24914062 -159.6875 34.625 C-160.52023438 34.94210938 -161.35296875 35.25921875 -162.2109375 35.5859375 C-164.3125 36.25 -164.3125 36.25 -167.3125 36.25 C-167.3125 35.59 -167.3125 34.93 -167.3125 34.25 C-134.01146983 22.27939651 -101.09008892 12.0454634 -66.15087891 5.76464844 C-64.30729858 5.43037463 -62.46563622 5.08527645 -60.62646484 4.72753906 C-40.65745875 0.8922626 -20.28795851 -0.04096085 0 0 Z " fill="#33384D" transform="translate(254.3125,59.75)"/>
<path d="M0 0 C1.52271991 1.52271991 1.20581982 2.87935159 1.25 5 C1.11143694 13.74332931 -2.10185803 20.59498646 -8 27 C-11.76499581 29.5099972 -13.54293606 29.61476744 -18 29 C-21.10381413 26.22637886 -22.69529282 24.24652936 -23.6875 20.1875 C-21.79126875 11.39588238 -15.18166146 5.8260765 -8 1 C-5.26752652 -0.36623674 -3.01801098 -0.128426 0 0 Z " fill="#222047" transform="translate(177,285)"/>
<path d="M0 0 C6.77267876 0.63893196 10.62570248 5.40819699 14.765625 10.36328125 C17.38397197 13.66266291 19.09833634 16.05428848 19.8125 20.25 C19.10229192 24.60002448 17.61261723 26.42489742 14.3125 29.3125 C11.40979188 30.26020142 9.22048301 30.23802701 6.3125 29.3125 C0.47041838 25.221706 -2.0914181 17.99780306 -3.6875 11.3125 C-4.01047727 7.9417091 -4.10980199 4.67706999 -3.6875 1.3125 C-2.6875 0.3125 -2.6875 0.3125 0 0 Z " fill="#202047" transform="translate(318.6875,284.6875)"/>
<path d="M0 0 C3.6254115 8.83694054 2.23172018 17.22420813 -1 26 C-3.20424443 29.93615076 -4.17332869 30.74904621 -8.5 32.0625 C-12 32 -12 32 -14.375 30.1875 C-17.50701375 25.97132764 -17.09062668 23.13386401 -16.57421875 18.0234375 C-15.28685469 11.24507162 -11.69759839 5.02157069 -7 0 C-4.3333581 -1.33332095 -2.83319697 -0.67102033 0 0 Z " fill="#222047" transform="translate(213,299)"/>
<path d="M0 0 C3.31980798 0.36886755 5.43426546 1.73137458 7.6953125 4.16796875 C12.53838261 10.96856719 14.56708106 18.36519137 14.46875 26.625 C13.90386832 29.48706717 13.03561623 30.92187671 11 33 C7.19359437 33.553659 4.99440533 33.66293688 1.75 31.5 C-2.66415198 25.1940686 -3.28969185 19.72789136 -3.375 12.25 C-3.38885742 11.50468018 -3.40271484 10.75936035 -3.41699219 9.99145508 C-3.38040375 5.72553186 -3.06450958 3.08072392 0 0 Z " fill="#202047" transform="translate(282,298)"/>
<path d="M0 0 C6.46597436 3.65512882 6.46597436 3.65512882 8.5625 6.75 C8.3125 9 8.3125 9 7.5625 10.75 C5.9375 11.5625 5.9375 11.5625 3.5625 11.75 C0.4375 9.375 0.4375 9.375 -2.4375 6.75 C-6.84461897 4.54644051 -12.6409714 5.30598517 -17.4375 5.75 C-19.93772296 6.79771248 -21.33443528 7.9704837 -23.4375 9.75 C-25.6875 10.625 -25.6875 10.625 -27.4375 10.75 C-28.0975 10.09 -28.7575 9.43 -29.4375 8.75 C-29.3359375 6.82421875 -29.3359375 6.82421875 -28.4375 4.75 C-26.4765625 3.08203125 -26.4765625 3.08203125 -24.0625 1.5625 C-23.27101563 1.05332031 -22.47953125 0.54414063 -21.6640625 0.01953125 C-14.84519442 -3.86841985 -6.91529901 -3.34478854 0 0 Z " fill="#262146" transform="translate(300.4375,143.25)"/>
<path d="M0 0 C3.31873596 2.07420998 4.7010442 2.98814959 5.8125 6.75 C5.874375 7.4925 5.93625 8.235 6 9 C3.8125 9.75 3.8125 9.75 1 10 C-1.6875 8.125 -1.6875 8.125 -4 6 C-8.40994393 3.79502803 -14.20023623 4.56259747 -19 5 C-22.36522864 6.30766711 -24.45954565 8.45954565 -27 11 C-29.125 10.625 -29.125 10.625 -31 10 C-31.33 8.68 -31.66 7.36 -32 6 C-22.41487846 -3.25563299 -12.37262123 -5.51465403 0 0 Z " fill="#272047" transform="translate(215,144)"/>
<path d="M0 0 C0.66 0.66 1.32 1.32 2 2 C1.81800703 4.72989462 1.01787594 5.97748956 -0.6875 8.125 C-5.97193332 12.40967567 -11.51729938 12.25930802 -18 12 C-18.875 8.8125 -18.875 8.8125 -19 5 C-14.31271428 -1.4794832 -7.46909814 -0.98006122 0 0 Z " fill="#212047" transform="translate(142,140)"/>
<path d="M0 0 C2.173461 0.9292615 3.95488966 1.840891 5.80859375 3.30859375 C6.99609375 6.37109375 6.99609375 6.37109375 6.80859375 9.30859375 C5.59375 10.9921875 5.59375 10.9921875 3.80859375 12.30859375 C-1.2712712 12.87697025 -6.01157277 11.83309937 -10.25390625 8.99609375 C-13.13911577 6.35643397 -13.57676748 5.86742813 -14.19140625 2.30859375 C-9.49612253 -1.10615805 -5.59629579 -1.76567621 0 0 Z " fill="#252048" transform="translate(365.19140625,135.69140625)"/>
<path d="M0 0 C1.88671875 0.63671875 1.88671875 0.63671875 4.88671875 2.57421875 C5.82421875 6.26171875 5.82421875 6.26171875 5.88671875 9.57421875 C1.63951894 12.40568529 -2.12858659 12.47778878 -7.11328125 11.57421875 C-9.84938968 9.91128359 -11.97838016 7.94947294 -14.11328125 5.57421875 C-13.73828125 3.13671875 -13.73828125 3.13671875 -13.11328125 0.57421875 C-9.13623144 -1.41430616 -4.27157368 -0.8606313 0 0 Z " fill="#232148" transform="translate(371.11328125,163.42578125)"/>
<path d="M0 0 C0.50657287 5.31901517 -0.67389957 7.86484812 -4 12 C-6.3125 14.4375 -6.3125 14.4375 -9 16 C-12.8125 15.75 -12.8125 15.75 -16 15 C-16.875 12.4375 -16.875 12.4375 -17 9 C-12.75473375 1.90497025 -8.15219958 -0.31354614 0 0 Z " fill="#232047" transform="translate(143,191)"/>
<path d="M0 0 C0.99 0.66 1.98 1.32 3 2 C2.84817368 4.65696068 2.52675976 6.44234524 0.66796875 8.41015625 C-4.68507964 12.87754214 -7.27288303 13.10850189 -14 13 C-14.875 9.8125 -14.875 9.8125 -15 6 C-10.91405212 0.74283579 -6.35397965 -0.33441998 0 0 Z " fill="#232147" transform="translate(165,174)"/>
<path d="M0 0 C-0.03480469 0.93972656 -0.03480469 0.93972656 -0.0703125 1.8984375 C-0.08835938 2.71570313 -0.10640625 3.53296875 -0.125 4.375 C-0.14820313 5.18710938 -0.17140625 5.99921875 -0.1953125 6.8359375 C-0.21370051 9.21342243 -0.21370051 9.21342243 2 11 C4.58354218 11.16687448 4.58354218 11.16687448 7 11 C6.40425532 16.36170213 6.40425532 16.36170213 4.8125 18.875 C1.98867883 20.62771659 0.24483358 20.59598984 -3 20 C-6.44480384 16.55519616 -7.27663336 13.60308038 -7.4375 8.875 C-7.43286789 5.9011841 -7.17203776 4.31040452 -5.72265625 1.6953125 C-4 0 -4 0 0 0 Z " fill="#25244A" transform="translate(202,157)"/>
<path d="M0 0 C6.47832366 -0.5973864 11.15638197 -0.27409989 16.5625 3.5625 C18 5 18 5 18.625 7.6875 C18 10 18 10 16 12 C10.9784353 12.49090653 6.8802817 11.37203939 2.9375 8.25 C1.21484375 6.765625 1.21484375 6.765625 0 5 C-0.18359375 2.296875 -0.18359375 2.296875 0 0 Z " fill="#222047" transform="translate(326,182)"/>
<path d="M0 0 C1.32 0.33 2.64 0.66 4 1 C4 3.64 4 6.28 4 9 C6.31 9.66 8.62 10.32 11 11 C10.65544802 14.10096781 10.15182706 15.79937138 8.25 18.3125 C6 20 6 20 3.4375 20.5 C1 20 1 20 -0.75 18.1875 C-3.37021805 13.60211842 -3.55872252 9.15887125 -3 4 C-1.5 1.4375 -1.5 1.4375 0 0 Z " fill="#26234A" transform="translate(285,157)"/>
<path d="M0 0 C4.42702899 0.91881734 8.27802324 2.92258241 12.34375 4.84375 C16.26018766 6.54855228 19.4996387 7.12500232 23.765625 7.09765625 C25.09980469 7.09282227 25.09980469 7.09282227 26.4609375 7.08789062 C27.84152344 7.07532227 27.84152344 7.07532227 29.25 7.0625 C30.65378906 7.05573242 30.65378906 7.05573242 32.0859375 7.04882812 C34.39069041 7.03706918 36.69531227 7.02063426 39 7 C37.22705078 10.90869141 37.22705078 10.90869141 35.18359375 11.73046875 C22.2563184 13.32614317 10.94476787 9.90057716 0 3 C0 2.01 0 1.02 0 0 Z " fill="#3A3853" transform="translate(357,279)"/>
<path d="M0 0 C0.99 0 1.98 0 3 0 C2.50971384 4.24426822 1.44544451 6.01792037 -1.8125 8.75 C-2.49957031 9.34296875 -3.18664062 9.9359375 -3.89453125 10.546875 C-8.85038636 13.96724253 -15.19973167 13.62904319 -21 13 C-23.70359149 11.93621572 -25.61061397 10.69911896 -28 9 C-27.67 8.01 -27.34 7.02 -27 6 C-23 8 -23 8 -21.16015625 9.078125 C-16.66076295 10.99830008 -11.34333803 9.86536432 -6.86328125 8.2109375 C-3.80218893 6.63226096 -2.16438543 5.31447648 -0.5625 2.25 C-0.376875 1.5075 -0.19125 0.765 0 0 Z " fill="#232442" transform="translate(264,179)"/>
<path d="M0 0 C2.5 0.1875 2.5 0.1875 5 1 C7.15502531 4.23253796 7.46856135 5.25150923 7 9 C5.75 10.875 5.75 10.875 4 12 C1.02602384 11.72963853 0.14553974 11.14553974 -2 9 C-2.25 5.5 -2.25 5.5 -2 2 C-1.34 1.34 -0.68 0.68 0 0 Z " fill="#F7F1F3" transform="translate(203,157)"/>
<path d="M0 0 C2.625 0.3125 2.625 0.3125 4.4375 2 C5.82675677 4.70539476 6.01999804 6.31051488 5.625 9.3125 C3.625 11.3125 3.625 11.3125 1.125 11.5625 C-1.375 11.3125 -1.375 11.3125 -3.375 9.3125 C-3.70252234 6.59795044 -3.5058425 4.06019241 -3.375 1.3125 C-2.375 0.3125 -2.375 0.3125 0 0 Z " fill="#FAF3F4" transform="translate(291.375,156.6875)"/>
<path d="M0 0 C3.3617907 0.70070111 6.21824412 1.96258595 9.3125 3.4375 C13.51133989 5.38495121 17.5098344 6.90240396 22 8 C18.86630669 10.08912887 17.84923562 10.30420714 14.25 9.69140625 C9.22520375 8.14732824 4.61607753 5.4785835 0 3 C0 2.01 0 1.02 0 0 Z " fill="#232445" transform="translate(357,279)"/>
<path d="M0 0 C-1.07891841 3.12886338 -2.04058583 4.02646902 -4.875 5.875 C-8 7 -8 7 -10.1953125 6.0703125 C-11.08863281 5.54050781 -11.08863281 5.54050781 -12 5 C-10.56705502 4.15885829 -9.12845595 3.32734313 -7.6875 2.5 C-6.88699219 2.0359375 -6.08648437 1.571875 -5.26171875 1.09375 C-3 0 -3 0 0 0 Z " fill="#22243F" transform="translate(138,269)"/>
<path d="M0 0 C1.32 0 2.64 0 4 0 C4.99 2.97 5.98 5.94 7 9 C5.68 9 4.36 9 3 9 C2.67 6.69 2.34 4.38 2 2 C1.34 2 0.68 2 0 2 C0 1.34 0 0.68 0 0 Z " fill="#2E2E49" transform="translate(180,199)"/>
<path d="M0 0 C0.99 0 1.98 0 3 0 C2.39009109 3.55780196 1.4216319 6.6828589 0 10 C-1.125 8.375 -1.125 8.375 -2 6 C-1.125 2.75 -1.125 2.75 0 0 Z " fill="#2B2C44" transform="translate(318,199)"/>
<path d="M0 0 C0 3 0 3 -1.53125 4.82421875 C-2.1809375 5.43910156 -2.830625 6.05398438 -3.5 6.6875 C-4.1496875 7.31011719 -4.799375 7.93273437 -5.46875 8.57421875 C-5.9740625 9.04472656 -6.479375 9.51523437 -7 10 C-7.33 9.34 -7.66 8.68 -8 8 C-7.04578192 6.85073734 -6.08647955 5.70569459 -5.125 4.5625 C-4.59132812 3.92441406 -4.05765625 3.28632813 -3.5078125 2.62890625 C-2 1 -2 1 0 0 Z " fill="#302F4E" transform="translate(196,435)"/>
<path d="M0 0 C2.64 0.66 5.28 1.32 8 2 C5 4 5 4 1 4 C0.67 2.68 0.34 1.36 0 0 Z " fill="#2D2A4B" transform="translate(371,285)"/>
</svg>
